<svg xmlns="http://www.w3.org/2000/svg" xmlns:xlink="http://www.w3.org/1999/xlink" width="1080" zoomAndPan="magnify" viewBox="0 0 810 1012.49997" height="1350" preserveAspectRatio="xMidYMid meet" version="1.0"><defs><filter x="0%" y="0%" width="100%" height="100%" id="902a5b7236"><feColorMatrix values="0 0 0 0 1 0 0 0 0 1 0 0 0 0 1 0 0 0 1 0" color-interpolation-filters="sRGB"></feColorMatrix></filter><filter x="0%" y="0%" width="100%" height="100%" id="5d094358f5"><feColorMatrix values="0 0 0 0 1 0 0 0 0 1 0 0 0 0 1 0.2126 0.7152 0.0722 0 0" color-interpolation-filters="sRGB"></feColorMatrix></filter><clipPath id="cbf8a9ff39"><path d="M 223 291.238281 L 587 291.238281 L 587 609.832031 L 223 609.832031 Z M 223 291.238281 " clip-rule="nonzero"></path></clipPath><mask id="1d4bb1dcff"><g filter="url(#902a5b7236)"><g filter="url(#5d094358f5)" transform="matrix(0.269867, 0, 0, 0.269994, 222.812735, 291.239605)"><image x="0" y="0" width="1350" height="1180" preserveAspectRatio="xMidYMid meet"></image></g></g></mask><clipPath id="15f72846f3"><path d="M 223 368 L 380.984375 368 L 380.984375 720.695312 L 223 720.695312 Z M 223 368 " clip-rule="nonzero"></path></clipPath><mask id="0d52423d46"><g filter="url(#902a5b7236)"><g filter="url(#5d094358f5)" transform="matrix(0.275561, 0, 0, 0.276272, 222.812735, 367.618813)"><image x="0" y="0" width="574" height="1278" preserveAspectRatio="xMidYMid meet"></image></g></g></mask></defs><g clip-path="url(#cbf8a9ff39)"><g mask="url(#1d4bb1dcff)"><g transform="matrix(0.269867, 0, 0, 0.269994, 222.812735, 291.239605)"><image x="0" y="0" width="1350" height="1180" preserveAspectRatio="xMidYMid meet"></image></g></g></g><g clip-path="url(#15f72846f3)"><g mask="url(#0d52423d46)"><g transform="matrix(0.275561, 0, 0, 0.276272, 222.812735, 367.618813)"><image x="0" y="0" width="574" height="1278" preserveAspectRatio="xMidYMid meet"></image></g></g></g></svg>